<svg width="19" height="19" viewBox="0 0 19 19" fill="none" xmlns="http://www.w3.org/2000/svg">
<path d="M0.891846 2.94784C0.891846 2.34177 1.09455 1.84177 1.49995 1.44784C1.90535 1.0539 2.43239 0.856934 3.08103 0.856934C3.71811 0.856934 4.23354 1.05086 4.62737 1.43875C5.03277 1.83875 5.23548 2.35995 5.23548 3.00238C5.23548 3.5842 5.03857 4.06904 4.64474 4.45693C4.23934 4.85693 3.70652 5.05693 3.04629 5.05693H3.02891C2.39184 5.05693 1.87641 4.85693 1.48258 4.45693C1.08875 4.05693 0.891846 3.55389 0.891846 2.94784ZM1.11771 18.8569V6.71147H4.97486V18.8569H1.11771ZM7.11192 18.8569H10.9691V12.0751C10.9691 11.6508 11.0154 11.3236 11.1081 11.0933C11.2702 10.6812 11.5164 10.3327 11.8465 10.0478C12.1766 9.76297 12.5907 9.62055 13.0888 9.62055C14.3861 9.62055 15.0347 10.5357 15.0347 12.366V18.8569H18.8918V11.8933C18.8918 10.0993 18.4864 8.73874 17.6756 7.81147C16.8648 6.8842 15.7934 6.42056 14.4613 6.42056C12.9671 6.42056 11.803 7.09329 10.9691 8.43874V8.4751H10.9517L10.9691 8.43874V6.71147H7.11192C7.13508 7.09934 7.14667 8.30539 7.14667 10.3296C7.14667 12.3539 7.13508 15.1963 7.11192 18.8569Z" fill="white"/>
</svg>
