<svg width="19" height="19" viewBox="0 0 19 19" fill="none" xmlns="http://www.w3.org/2000/svg">
<g clip-path="url(#clip0_1336_62)">
<path d="M0.0188599 9.42871C0.0188599 7.7967 0.420872 6.29072 1.22486 4.91071C2.02887 3.5307 3.12087 2.43872 4.50086 1.63471C5.88087 0.830705 7.38687 0.428711 9.01886 0.428711C10.6509 0.428711 12.1569 0.830705 13.5369 1.63471C14.9169 2.43872 16.0089 3.5307 16.8129 4.91071C17.6169 6.29072 18.0189 7.7967 18.0189 9.42871C18.0189 11.0607 17.6169 12.5667 16.8129 13.9467C16.0089 15.3267 14.9169 16.4187 13.5369 17.2227C12.1569 18.0267 10.6509 18.4287 9.01886 18.4287C7.38687 18.4287 5.88087 18.0267 4.50086 17.2227C3.12087 16.4187 2.02887 15.3267 1.22486 13.9467C0.420872 12.5667 0.0188599 11.0607 0.0188599 9.42871ZM1.51286 9.42871C1.51286 11.3007 2.14286 12.9507 3.40286 14.3787C3.97886 13.2507 4.89087 12.1767 6.13886 11.1567C7.38687 10.1367 8.60486 9.49472 9.79286 9.23071C9.61286 8.81072 9.43887 8.43272 9.27086 8.09671C7.20687 8.75672 4.97487 9.08671 2.57486 9.08671C2.10686 9.08671 1.75887 9.08072 1.53086 9.06871C1.53086 9.11672 1.52787 9.17671 1.52186 9.24871C1.51587 9.32071 1.51286 9.3807 1.51286 9.42871ZM1.74686 7.57471C2.01087 7.5987 2.40087 7.61071 2.91686 7.61071C4.92087 7.61071 6.82286 7.34071 8.62286 6.80071C7.71087 5.18071 6.70887 3.83071 5.61686 2.75071C4.66887 3.23072 3.85587 3.89672 3.17786 4.74871C2.49987 5.6007 2.02287 6.54272 1.74686 7.57471ZM4.42886 15.3507C5.78487 16.4067 7.31487 16.9347 9.01886 16.9347C9.90687 16.9347 10.7889 16.7667 11.6649 16.4307C11.4249 14.3787 10.9569 12.3927 10.2609 10.4727C9.15687 10.7127 8.04387 11.3187 6.92186 12.2907C5.79987 13.2627 4.96886 14.2827 4.42886 15.3507ZM7.18286 2.17471C8.23887 3.26672 9.21686 4.6287 10.1169 6.26071C11.7489 5.57671 12.9789 4.70672 13.8069 3.65071C12.4149 2.49871 10.8189 1.92271 9.01886 1.92271C8.40686 1.92271 7.79486 2.00672 7.18286 2.17471ZM10.7649 7.53871C10.9449 7.9227 11.1489 8.4087 11.3769 8.99671C12.2649 8.9127 13.2309 8.87071 14.2749 8.87071C15.0189 8.87071 15.7569 8.88871 16.4889 8.92471C16.3929 7.2927 15.8049 5.84072 14.7249 4.56871C13.9449 5.73272 12.6249 6.72272 10.7649 7.53871ZM11.8269 10.2567C12.4389 12.0327 12.8529 13.8567 13.0689 15.7287C14.0169 15.1167 14.7909 14.3307 15.3909 13.3707C15.9909 12.4107 16.3509 11.3727 16.4709 10.2567C15.5949 10.1967 14.7969 10.1667 14.0769 10.1667C13.4169 10.1667 12.6669 10.1967 11.8269 10.2567Z" fill="white"/>
</g>
<defs>
<clipPath id="clip0_1336_62">
<rect width="18" height="18" fill="white" transform="translate(0.0188599 0.428711)"/>
</clipPath>
</defs>
</svg>
