<svg width="19" height="19" viewBox="0 0 19 19" fill="none" xmlns="http://www.w3.org/2000/svg">
<g clip-path="url(#clip0_1336_65)">
<path d="M6.01935 9.42871C6.01935 7.77193 7.36208 6.42847 9.01886 6.42847C10.6756 6.42847 12.0191 7.77193 12.0191 9.42871C12.0191 11.0855 10.6756 12.429 9.01886 12.429C7.36208 12.429 6.01935 11.0855 6.01935 9.42871ZM4.39745 9.42871C4.39745 11.9811 6.46644 14.0501 9.01886 14.0501C11.5713 14.0501 13.6403 11.9811 13.6403 9.42871C13.6403 6.87629 11.5713 4.80731 9.01886 4.80731C6.46644 4.80731 4.39745 6.87629 4.39745 9.42871ZM12.7432 4.62411C12.7432 5.22023 13.2266 5.7044 13.8235 5.7044C14.4196 5.7044 14.9038 5.22023 14.9038 4.62411C14.9038 4.02798 14.4203 3.54454 13.8235 3.54454C13.2266 3.54454 12.7432 4.02798 12.7432 4.62411ZM5.38251 16.7545C4.50505 16.7145 4.02815 16.5684 3.71119 16.4448C3.29099 16.2812 2.99148 16.0864 2.67597 15.7716C2.36119 15.4568 2.16563 15.1573 2.00279 14.7371C1.8792 14.4201 1.73308 13.9433 1.69309 13.0658C1.64947 12.1171 1.64075 11.8321 1.64075 9.42871C1.64075 7.02532 1.6502 6.74107 1.69309 5.79164C1.73308 4.91417 1.87993 4.438 2.00279 4.12031C2.16636 3.70012 2.36119 3.4006 2.67597 3.08509C2.99075 2.77031 3.29027 2.57475 3.71119 2.41191C4.02815 2.28832 4.50505 2.1422 5.38251 2.10222C6.33122 2.0586 6.61619 2.04987 9.01886 2.04987C11.4223 2.04987 11.7065 2.05932 12.6559 2.10222C13.5334 2.1422 14.0096 2.28905 14.3273 2.41191C14.7475 2.57475 15.047 2.77031 15.3625 3.08509C15.6773 3.39987 15.8721 3.70012 16.0357 4.12031C16.1592 4.43727 16.3054 4.91417 16.3454 5.79164C16.389 6.74107 16.3977 7.02532 16.3977 9.42871C16.3977 11.8314 16.389 12.1164 16.3454 13.0658C16.3054 13.9433 16.1585 14.4201 16.0357 14.7371C15.8721 15.1573 15.6773 15.4568 15.3625 15.7716C15.0477 16.0864 14.7475 16.2812 14.3273 16.4448C14.0103 16.5684 13.5334 16.7145 12.6559 16.7545C11.7072 16.7981 11.4223 16.8068 9.01886 16.8068C6.61619 16.8068 6.33122 16.7981 5.38251 16.7545V16.7545ZM5.30836 0.483234C4.3502 0.526853 3.69592 0.678792 3.12379 0.901247C2.53203 1.13097 2.03041 1.43921 1.52952 1.93937C1.02936 2.43953 0.721122 2.94115 0.491396 3.53364C0.268941 4.10577 0.117002 4.76005 0.0733833 5.71821C0.0290376 6.67782 0.0188599 6.98461 0.0188599 9.42871C0.0188599 11.8728 0.0290376 12.1796 0.0733833 13.1392C0.117002 14.0974 0.268941 14.7517 0.491396 15.3238C0.721122 15.9155 1.02863 16.4179 1.52952 16.918C2.02968 17.4182 2.5313 17.7257 3.12379 17.9562C3.69665 18.1786 4.3502 18.3306 5.30836 18.3742C6.2687 18.4178 6.57476 18.4287 9.01886 18.4287C11.4637 18.4287 11.7697 18.4185 12.7294 18.3742C13.6875 18.3306 14.3418 18.1786 14.9139 17.9562C15.5057 17.7257 16.0073 17.4182 16.5082 16.918C17.0084 16.4179 17.3159 15.9155 17.5463 15.3238C17.7688 14.7517 17.9214 14.0974 17.9643 13.1392C18.008 12.1789 18.0181 11.8728 18.0181 9.42871C18.0181 6.98461 18.008 6.67782 17.9643 5.71821C17.9207 4.76005 17.7688 4.10577 17.5463 3.53364C17.3159 2.94188 17.0084 2.44026 16.5082 1.93937C16.008 1.43921 15.5057 1.13097 14.9147 0.901247C14.3418 0.678792 13.6875 0.526126 12.7301 0.483234C11.7705 0.439616 11.4637 0.428711 9.01959 0.428711C6.57476 0.428711 6.2687 0.438889 5.30836 0.483234" fill="white"/>
</g>
<defs>
<clipPath id="clip0_1336_65">
<rect width="18" height="18" fill="white" transform="translate(0.0188599 0.428711)"/>
</clipPath>
</defs>
</svg>
